<svg xmlns="http://www.w3.org/2000/svg" width="200" height="200">
  <path d="m 135.2,49.8 c -2.5,-2.5 -29.3,-2.5 -31.9,0 l -53.5,53.4 c -2.5,2.5 -2.5,6.7 0,9.4 l 37.5,37.5 c 2.5,2.5 6.7,2.5 9.4,0 l 53.4,-53.4 c 2.5,-2.6 2.5,-29.3 0,-31.9 h 3e-5 z" />
  <path fill="#f20" d="m 100,190 c -49.6,0 -90,-40.3 -90,-90 0,-49.6 40.3,-90 90,-90 49.6,0 90,40.3 90,90 0,49.6 -40.3,90 -90,90 z m 0,-169.2 c -43.6,0 -79.2,35.5 -79.2,79.2 0,43.6 35.5,79.2 79.2,79.2 43.6,0 79.2,-35.5 79.2,-79.2 0,-43.6 -35.5,-79.2 -79.2,-79.2 z" />
  <path fill="#fff" d="m 77.9,126.7 5.3,-5.7 q 1.5,1.1 2.8,1.2 2.1,0.2 3.8,-1.3 1.2,-1.2 1.3,-2.4 0.0,-1.2 -0.7,-1.9 -0.7,-0.7 -2.0,-0.6 -1.2,0.0 -4.2,1.8 -4.8,2.8 -8.0,3.0 -3.1,0.2 -5.4,-1.9 -1.5,-1.4 -1.9,-3.4 -0.4,-2.0 0.5,-4.4 0.9,-2.3 4.0,-5.2 3.7,-3.5 7.0,-4.0 3.3,-0.5 6.7,1.9 l -5.3,5.6 q -1.5,-1.0 -2.8,-0.9 -1.3,0.1 -2.5,1.3 -1.0,0.9 -1.1,1.9 -0.0,0.9 0.5,1.5 0.4,0.4 1.2,0.3 0.8,-0.0 2.7,-1.2 4.7,-2.9 7.3,-3.6 2.5,-0.8 4.6,-0.3 2.0,0.4 3.6,1.9 1.8,1.7 2.4,4.2 0.5,2.4 -0.4,4.9 -1.0,2.5 -3.8,5.1 -4.9,4.6 -8.8,4.6 -3.8,10e-6 -7.0,-2.5 z" />
  <path fill="#fff" d="m 85.5,94.9 16.1,-15.2 4.1,3.9 -10.1,9.5 3.0,2.9 9.3,-8.8 3.9,3.7 -9.3,8.8 3.8,3.6 10.3,-9.7 4.4,4.1 -16.4,15.4 z" />
  <path fill="#fff" d="m 114.2,86.3 q -4.7,-4.4 -4.7,-9.5 1e-5,-5.0 4.7,-9.4 4.8,-4.5 10.1,-4.5 5.2,-0.0 9.9,4.4 3.4,3.2 4.4,6.3 1.0,3.1 0.0,6.3 -0.9,3.1 -4.2,6.2 -3.2,3.1 -6.5,4.1 -3.2,1.0 -6.8,0.1 -3.6,-0.8 -7.0,-4.0 z m 6.0,-5.6 q 2.9,2.7 5.3,2.9 2.3,0.1 4.2,-1.6 1.9,-1.8 1.7,-4.0 -0.1,-2.1 -3.4,-5.2 -2.7,-2.5 -5.1,-2.7 -2.3,-0.1 -4.2,1.6 -1.8,1.7 -1.6,3.9 0.1,2.2 3.1,5.0 z" />
</svg>
